<?xml version="1.0" encoding="utf-8"?>
<!-- Generator: Adobe Illustrator 21.1.0, SVG Export Plug-In . SVG Version: 6.00 Build 0)  -->
<svg version="1.1" id="Layer_1" xmlns="http://www.w3.org/2000/svg" xmlns:xlink="http://www.w3.org/1999/xlink" x="0px" y="0px"
	 viewBox="0 0 800 460" style="enable-background:new 0 0 800 460;" xml:space="preserve">
<style type="text/css">
	.st0{fill:none;stroke:#E58200;stroke-width:10;stroke-miterlimit:10;}
	.st1{fill:#E58200;}
	.st2{fill:#1BB99A;}
	.st3{fill:#FFFFFF;}
</style>
<polyline class="st0" points="-1122,32 -1087.9,32 -1073.9,-4.1 -1035,109 -1011,32 -991,32 -991,-39 -915,-39 -915,32 -890,32 
	-890,-105 -799,-105 -799,32 -782,32 -752,2 -722,32 -706.3,32 -684.5,-57.5 -653.8,74.4 -644,32 -609,32 "/>
<text transform="matrix(1 0 0 1 -1104.8894 223.9415)" class="st1" style="font-family:'Montserrat-Regular'; font-size:90px;">CITY LIVES</text>
<circle class="st0" cx="-1152" cy="32" r="30"/>
<circle class="st0" cx="-579" cy="32" r="30"/>
<polyline class="st0" points="-1152,62 -1152,193 -1100,193 "/>
<polyline class="st0" points="-579,62 -579,193 -640,193 "/>
<g>
	<rect x="-1031.7" y="531" class="st1" width="10.6" height="62.9"/>
	<polygon class="st1" points="-1011.4,540.8 -992.3,540.8 -992.3,593.9 -981.7,593.9 -981.7,540.8 -962.6,540.8 -962.6,531 
		-1011.4,531 	"/>
	<polygon class="st1" points="-929.9,559.7 -947.1,531 -958.7,531 -935.3,569.1 -935.3,593.9 -924.5,593.9 -924.5,569.1 -901.1,531 
		-912.7,531 	"/>
	<polygon class="st1" points="-856,531 -866.7,531 -866.7,593.9 -827.3,593.9 -827.3,583.9 -856,583.9 	"/>
	<rect x="-815.7" y="531" class="st1" width="10.6" height="62.9"/>
	<polygon class="st1" points="-764.9,578 -784.2,531 -796.1,531 -770.8,593.9 -758.9,593.9 -733.6,531 -745.5,531 	"/>
	<polygon class="st1" points="-715.8,567.1 -685.7,567.1 -685.7,557.7 -715.8,557.7 -715.8,541 -682.3,541 -682.3,531 -726.4,531 
		-726.4,593.9 -681.2,593.9 -681.2,584 -715.8,584 	"/>
	<path class="st1" d="M-544,402c0-19.3-15.7-35-35-35c-17.6,0-32.2,13.1-34.6,30H-648l-5.8,25.3l-30.6-131.4L-710.3,397h-9.7
		l-32.1-32.1l-32.1,32.1h-9.9V260h-101v137h-15v-71h-77v71h-18.7l-20.6,65.9l-47.4-111.6l-17.7,45.7h-26c-2.4-16.9-17-30-34.6-30
		c-19.3,0-35,15.7-35,35c0,17.6,13.1,32.2,30,34.6V568h57v-1.7c0.8,7.6,3.8,14,9.2,19.2c6.3,6.1,14.2,9.2,23.7,9.2
		s17.6-3.7,24.3-11.1l-6.8-7c-2.9,2.7-5.6,4.7-8.3,5.9c-2.6,1.2-5.8,1.8-9.5,1.8c-5.9,0-11-2.1-15.3-6.4c-4.3-4.3-6.4-9.6-6.4-16
		c0-6.4,2.2-11.6,6.5-15.8c4.3-4.1,9.7-6.2,16-6.2c3.6,0,6.7,0.6,9.4,1.7c2.7,1.1,5.5,3.2,8.5,6l6.8-7.4
		c-6.5-7.2-14.7-10.8-24.4-10.8c-9.8,0-17.8,3.1-24.2,9.4c-5.5,5.3-8.6,11.8-9.4,19.4V558h-47V436.6c15.3-2.2,27.4-14.3,29.6-29.6
		h32.9l10.3-26.5l48.4,114.6l27.4-88.1h21.3v-71h57v71h35V270h81v137h24.1l27.9-27.9l27.9,27.9h21.7l17.8-72.9l30.8,132.5L-640,407
		h26.4c2.2,15.3,14.3,27.4,29.6,29.6V558c0,0-50.3,0-52.2,0c-4.2,0-6.1-0.6-7.3-0.9c-6.5-1.6-10.7-3-12.6-4.4c-2-1.3-3-3.3-3-5.8
		c0-2.5,1-4.5,3-5.7c2-1.3,4.5-1.9,7.6-1.9c3.1,0,6.2,0.5,9.4,1.6c3.2,1.1,5.7,2.5,7.6,4.1l5.7-8c-2.9-2.4-6.3-4.3-10.3-5.6
		c-4-1.3-8-2-12-2c-6.2,0-11.5,1.6-15.7,4.7c-4.2,3.2-6.3,7.6-6.3,13.5c0,5.8,1.9,10.1,5.6,13c1.9,1.5,4,2.7,6.4,3.6
		c2.4,0.9,5.9,2,10.5,3.1c4.6,1.1,7.9,2.3,9.8,3.7c1.9,1.3,2.8,3.2,2.8,5.7c0,2.4-1,4.4-3,5.8c-2,1.5-4.7,2.2-8.1,2.2
		c-6.8,0-13.4-2.8-19.8-8.3l-6.7,8c7.6,6.8,16.3,10.2,26.2,10.2c6.7,0,12.2-1.7,16.3-5.1s6.2-7.9,6.2-13.4c0-3.2-0.6-5.9-1.7-8.2
		h51.7V436.6C-557.1,434.2-544,419.6-544,402z M-1152,427c-13.8,0-25-11.2-25-25s11.2-25,25-25s25,11.2,25,25S-1138.2,427-1152,427z
		 M-579,427c-13.8,0-25-11.2-25-25s11.2-25,25-25s25,11.2,25,25S-565.2,427-579,427z"/>
</g>
<g>
	<rect x="1101.8" y="334.7" class="st2" width="10.6" height="62.9"/>
	<polygon class="st2" points="1122.1,344.4 1141.2,344.4 1141.2,397.6 1151.8,397.6 1151.8,344.4 1170.9,344.4 1170.9,334.7 
		1122.1,334.7 	"/>
	<polygon class="st2" points="1203.6,363.3 1186.4,334.7 1174.8,334.7 1198.2,372.8 1198.2,397.6 1209,397.6 1209,372.8 
		1232.4,334.7 1220.8,334.7 	"/>
	<polygon class="st2" points="1277.5,334.7 1266.8,334.7 1266.8,397.6 1306.2,397.6 1306.2,387.5 1277.5,387.5 	"/>
	<rect x="1317.8" y="334.7" class="st2" width="10.6" height="62.9"/>
	<polygon class="st2" points="1368.6,381.7 1349.3,334.7 1337.4,334.7 1362.7,397.6 1374.6,397.6 1399.9,334.7 1388,334.7 	"/>
	<polygon class="st2" points="1417.7,370.8 1447.8,370.8 1447.8,361.3 1417.7,361.3 1417.7,344.7 1451.2,344.7 1451.2,334.7 
		1407.1,334.7 1407.1,397.6 1452.3,397.6 1452.3,387.6 1417.7,387.6 	"/>
	<path class="st2" d="M1554.5,170.7c-17.6,0-32.2,13.1-34.6,30h-34.3l-5.8,25.3l-30.6-131.4l-25.9,106.1h-9.7l-32.1-32.1l-32.1,32.1
		h-9.9v-137h-101v137h-15v-71h-67v71h-29.8l-19.8,62.8l-38.4-111.6l-18.8,48.8h-33.5c-2.4-16.9-17-30-34.6-30c-19.3,0-35,15.7-35,35
		c0,17.6,13.1,32.2,30,34.6v131.4h57v-1.7c0.8,7.6,3.8,14,9.2,19.2c6.3,6.1,14.2,9.2,23.7,9.2s17.6-3.7,24.3-11.1l-6.8-7
		c-2.9,2.7-5.6,4.7-8.3,5.9c-2.6,1.2-5.8,1.8-9.5,1.8c-5.9,0-11-2.1-15.3-6.4c-4.3-4.3-6.4-9.6-6.4-16c0-6.4,2.2-11.6,6.5-15.8
		c4.3-4.1,9.7-6.2,16-6.2c3.6,0,6.7,0.6,9.4,1.7c2.7,1.1,5.5,3.2,8.5,6l6.8-7.4c-6.5-7.2-14.7-10.8-24.4-10.8
		c-9.8,0-17.8,3.1-24.2,9.4c-5.5,5.3-8.6,11.8-9.4,19.4v-0.3h-47V240.3c15.3-2.2,27.4-14.3,29.6-29.6h40.4l11.4-29.7l39.4,114.6
		l26.5-84.9h32.7v-71h47v71h35v-137h81v137h24.1l27.9-27.9l27.9,27.9h21.7l17.8-72.9l30.8,132.5l13.7-59.6h26.4
		c2.2,15.3,14.3,27.4,29.6,29.6v121.4c0,0-50.3,0-52.2,0c-4.2,0-6.1-0.6-7.3-0.9c-6.5-1.6-10.7-3-12.6-4.4c-2-1.3-3-3.3-3-5.8
		c0-2.5,1-4.5,3-5.7c2-1.3,4.5-1.9,7.6-1.9c3.1,0,6.2,0.5,9.4,1.6c3.2,1.1,5.7,2.5,7.6,4.1l5.7-8c-2.9-2.4-6.3-4.3-10.3-5.6
		c-4-1.3-8-2-12-2c-6.2,0-11.5,1.6-15.7,4.7c-4.2,3.2-6.3,7.6-6.3,13.5c0,5.8,1.9,10.1,5.6,13c1.9,1.5,4,2.7,6.4,3.6
		c2.4,0.9,5.9,2,10.5,3.1c4.6,1.1,7.9,2.3,9.8,3.7c1.9,1.3,2.8,3.2,2.8,5.7c0,2.4-1,4.4-3,5.8c-2,1.5-4.7,2.2-8.1,2.2
		c-6.8,0-13.4-2.8-19.8-8.3l-6.7,8c7.6,6.8,16.3,10.2,26.2,10.2c6.7,0,12.2-1.7,16.3-5.1s6.2-7.9,6.2-13.4c0-3.2-0.6-5.9-1.7-8.2
		h51.7V240.3c16.9-2.4,30-17,30-34.6C1589.5,186.4,1573.8,170.7,1554.5,170.7z M981.5,230.7c-13.8,0-25-11.2-25-25s11.2-25,25-25
		s25,11.2,25,25S995.3,230.7,981.5,230.7z M1554.5,230.7c-13.8,0-25-11.2-25-25s11.2-25,25-25s25,11.2,25,25
		S1568.3,230.7,1554.5,230.7z"/>
</g>
<g>
	<rect x="233.8" y="334.7" class="st2" width="10.6" height="62.9"/>
	<polygon class="st2" points="254.1,344.4 273.2,344.4 273.2,397.6 283.8,397.6 283.8,344.4 302.9,344.4 302.9,334.7 254.1,334.7 	
		"/>
	<polygon class="st2" points="335.6,363.3 318.4,334.7 306.8,334.7 330.2,372.8 330.2,397.6 341,397.6 341,372.8 364.4,334.7 
		352.8,334.7 	"/>
	<polygon class="st2" points="409.5,334.7 398.8,334.7 398.8,397.6 438.2,397.6 438.2,387.5 409.5,387.5 	"/>
	<rect x="449.8" y="334.7" class="st2" width="10.6" height="62.9"/>
	<polygon class="st2" points="500.6,381.7 481.3,334.7 469.4,334.7 494.7,397.6 506.6,397.6 531.9,334.7 520,334.7 	"/>
	<polygon class="st2" points="549.7,370.8 579.8,370.8 579.8,361.3 549.7,361.3 549.7,344.7 583.2,344.7 583.2,334.7 539.1,334.7 
		539.1,397.6 584.3,397.6 584.3,387.6 549.7,387.6 	"/>
	<path class="st2" d="M686.5,170.7c-17.6,0-32.2,13.1-34.6,30h-34.3l-5.8,25.3L581.1,94.6l-25.9,106.1h-9.7l-32.1-32.1l-32.1,32.1
		h-9.9v-137h-101v137h-15v-71h-67v71h-29.8l-19.8,62.8l-38.4-111.6l-18.8,48.8h-33.5c-2.4-16.9-17-30-34.6-30c-19.3,0-35,15.7-35,35
		c0,17.6,13.1,32.2,30,34.6v131.4h57v-1.7c0.8,7.6,3.8,14,9.2,19.2c6.3,6.1,14.2,9.2,23.7,9.2s17.6-3.7,24.3-11.1l-6.8-7
		c-2.9,2.7-5.6,4.7-8.3,5.9c-2.6,1.2-5.8,1.8-9.5,1.8c-5.9,0-11-2.1-15.3-6.4c-4.3-4.3-6.4-9.6-6.4-16c0-6.4,2.2-11.6,6.5-15.8
		c4.3-4.1,9.7-6.2,16-6.2c3.6,0,6.7,0.6,9.4,1.7c2.7,1.1,5.5,3.2,8.5,6l6.8-7.4c-6.5-7.2-14.7-10.8-24.4-10.8
		c-9.8,0-17.8,3.1-24.2,9.4c-5.5,5.3-8.6,11.8-9.4,19.4v-0.3h-47V240.3c15.3-2.2,27.4-14.3,29.6-29.6h40.4l11.4-29.7l39.4,114.6
		l26.5-84.9h32.7v-71h47v71h35v-137h81v137h24.1l27.9-27.9l27.9,27.9h21.7l17.8-72.9l30.8,132.5l13.7-59.6h26.4
		c2.2,15.3,14.3,27.4,29.6,29.6v121.4c0,0-50.3,0-52.2,0c-4.2,0-6.1-0.6-7.3-0.9c-6.5-1.6-10.7-3-12.6-4.4c-2-1.3-3-3.3-3-5.8
		c0-2.5,1-4.5,3-5.7c2-1.3,4.5-1.9,7.6-1.9c3.1,0,6.2,0.5,9.4,1.6c3.2,1.1,5.7,2.5,7.6,4.1l5.7-8c-2.9-2.4-6.3-4.3-10.3-5.6
		c-4-1.3-8-2-12-2c-6.2,0-11.5,1.6-15.7,4.7c-4.2,3.2-6.3,7.6-6.3,13.5c0,5.8,1.9,10.1,5.6,13c1.9,1.5,4,2.7,6.4,3.6
		c2.4,0.9,5.9,2,10.5,3.1c4.6,1.1,7.9,2.3,9.8,3.7c1.9,1.3,2.8,3.2,2.8,5.7c0,2.4-1,4.4-3,5.8c-2,1.5-4.7,2.2-8.1,2.2
		c-6.8,0-13.4-2.8-19.8-8.3l-6.7,8c7.6,6.8,16.3,10.2,26.2,10.2c6.7,0,12.2-1.7,16.3-5.1s6.2-7.9,6.2-13.4c0-3.2-0.6-5.9-1.7-8.2
		h51.7V240.3c16.9-2.4,30-17,30-34.6C721.5,186.4,705.8,170.7,686.5,170.7z M113.5,230.7c-13.8,0-25-11.2-25-25s11.2-25,25-25
		s25,11.2,25,25S127.3,230.7,113.5,230.7z M686.5,230.7c-13.8,0-25-11.2-25-25s11.2-25,25-25s25,11.2,25,25S700.3,230.7,686.5,230.7
		z"/>
</g>
<rect x="1706" y="-169" class="st2" width="800" height="800"/>
<g>
	<rect x="1939.8" y="334.7" class="st3" width="10.6" height="62.9"/>
	<polygon class="st3" points="1960.1,344.4 1979.2,344.4 1979.2,397.6 1989.8,397.6 1989.8,344.4 2008.9,344.4 2008.9,334.7 
		1960.1,334.7 	"/>
	<polygon class="st3" points="2041.6,363.3 2024.4,334.7 2012.8,334.7 2036.2,372.8 2036.2,397.6 2047,397.6 2047,372.8 
		2070.4,334.7 2058.8,334.7 	"/>
	<polygon class="st3" points="2115.5,334.7 2104.8,334.7 2104.8,397.6 2144.2,397.6 2144.2,387.5 2115.5,387.5 	"/>
	<rect x="2155.8" y="334.7" class="st3" width="10.6" height="62.9"/>
	<polygon class="st3" points="2206.6,381.7 2187.3,334.7 2175.4,334.7 2200.7,397.6 2212.6,397.6 2237.9,334.7 2226,334.7 	"/>
	<polygon class="st3" points="2255.7,370.8 2285.8,370.8 2285.8,361.3 2255.7,361.3 2255.7,344.7 2289.2,344.7 2289.2,334.7 
		2245.1,334.7 2245.1,397.6 2290.3,397.6 2290.3,387.6 2255.7,387.6 	"/>
	<path class="st3" d="M2392.5,170.7c-17.6,0-32.2,13.1-34.6,30h-34.3l-5.8,25.3l-30.6-131.4l-25.9,106.1h-9.7l-32.1-32.1l-32.1,32.1
		h-9.9v-137h-101v137h-15v-71h-67v71h-29.8l-19.8,62.8l-38.4-111.6l-18.8,48.8h-33.5c-2.4-16.9-17-30-34.6-30c-19.3,0-35,15.7-35,35
		c0,17.6,13.1,32.2,30,34.6v131.4h57v-1.7c0.8,7.6,3.8,14,9.2,19.2c6.3,6.1,14.2,9.2,23.7,9.2s17.6-3.7,24.3-11.1l-6.8-7
		c-2.9,2.7-5.6,4.7-8.3,5.9c-2.6,1.2-5.8,1.8-9.5,1.8c-5.9,0-11-2.1-15.3-6.4c-4.3-4.3-6.4-9.6-6.4-16c0-6.4,2.2-11.6,6.5-15.8
		c4.3-4.1,9.7-6.2,16-6.2c3.6,0,6.7,0.6,9.4,1.7c2.7,1.1,5.5,3.2,8.5,6l6.8-7.4c-6.5-7.2-14.7-10.8-24.4-10.8
		c-9.8,0-17.8,3.1-24.2,9.4c-5.5,5.3-8.6,11.8-9.4,19.4v-0.3h-47V240.3c15.3-2.2,27.4-14.3,29.6-29.6h40.4l11.4-29.7l39.4,114.6
		l26.5-84.9h32.7v-71h47v71h35v-137h81v137h24.1l27.9-27.9l27.9,27.9h21.7l17.8-72.9l30.8,132.5l13.7-59.6h26.4
		c2.2,15.3,14.3,27.4,29.6,29.6v121.4c0,0-50.3,0-52.2,0c-4.2,0-6.1-0.6-7.3-0.9c-6.5-1.6-10.7-3-12.6-4.4c-2-1.3-3-3.3-3-5.8
		c0-2.5,1-4.5,3-5.7c2-1.3,4.5-1.9,7.6-1.9c3.1,0,6.2,0.5,9.4,1.6c3.2,1.1,5.7,2.5,7.6,4.1l5.7-8c-2.9-2.4-6.3-4.3-10.3-5.6
		c-4-1.3-8-2-12-2c-6.2,0-11.5,1.6-15.7,4.7c-4.2,3.2-6.3,7.6-6.3,13.5c0,5.8,1.9,10.1,5.6,13c1.9,1.5,4,2.7,6.4,3.6
		c2.4,0.9,5.9,2,10.5,3.1c4.6,1.1,7.9,2.3,9.8,3.7c1.9,1.3,2.8,3.2,2.8,5.7c0,2.4-1,4.4-3,5.8c-2,1.5-4.7,2.2-8.1,2.2
		c-6.8,0-13.4-2.8-19.8-8.3l-6.7,8c7.6,6.8,16.3,10.2,26.2,10.2c6.7,0,12.2-1.7,16.3-5.1s6.2-7.9,6.2-13.4c0-3.2-0.6-5.9-1.7-8.2
		h51.7V240.3c16.9-2.4,30-17,30-34.6C2427.5,186.4,2411.8,170.7,2392.5,170.7z M1819.5,230.7c-13.8,0-25-11.2-25-25s11.2-25,25-25
		s25,11.2,25,25S1833.3,230.7,1819.5,230.7z M2392.5,230.7c-13.8,0-25-11.2-25-25s11.2-25,25-25s25,11.2,25,25
		S2406.3,230.7,2392.5,230.7z"/>
</g>
</svg>
